<?xml version="1.0" standalone="no"?>
<!DOCTYPE svg PUBLIC "-//W3C//DTD SVG 20010904//EN"
 "http://www.w3.org/TR/2001/REC-SVG-20010904/DTD/svg10.dtd">
<svg version="1.0" xmlns="http://www.w3.org/2000/svg"
 width="920.000000pt" height="920.000000pt" viewBox="0 0 920.000000 920.000000"
 preserveAspectRatio="xMidYMid meet">

<g transform="translate(0.000000,920.000000) scale(0.100000,-0.100000)"
fill="#000000" stroke="none">
<path d="M3480 8274 c-423 -40 -790 -149 -1126 -335 -694 -385 -1198 -1054
-1368 -1820 -47 -211 -60 -345 -60 -599 0 -254 13 -388 60 -599 230 -1036
1059 -1865 2094 -2095 786 -174 1623 8 2255 492 l90 69 1225 -1222 c1169
-1166 1227 -1223 1275 -1236 195 -54 359 62 359 256 0 133 81 44 -1254 1380
-666 665 -1210 1211 -1210 1211 0 1 36 49 79 108 394 528 589 1215 531 1866
-60 660 -328 1240 -793 1708 -434 439 -981 713 -1587 797 -111 15 -478 27
-570 19z m518 -569 c982 -144 1738 -913 1873 -1905 7 -52 13 -178 13 -280 0
-102 -6 -228 -13 -280 -102 -752 -562 -1389 -1236 -1711 -206 -98 -443 -169
-675 -200 -122 -17 -438 -17 -560 0 -845 115 -1540 682 -1809 1476 -83 246
-115 446 -115 720 0 576 209 1101 605 1519 341 361 837 611 1319 665 52 6 109
13 125 15 60 9 372 -4 473 -19z"/>
</g>
</svg>
